<?xml version="1.0" encoding="UTF-8" standalone="no"?>
<!-- Created with Inkscape (http://www.inkscape.org/) -->

<svg
   version="1.1"
   id="svg2"
   width="512"
   height="512"
   viewBox="0 0 512 512"
   sodipodi:docname="bus.svg"
   inkscape:export-filename="/home/fj_huete/Dropbox/ASIR/Lenguaje de marcas/Git/proyecto_API/static/images/bus.png"
   inkscape:export-xdpi="90"
   inkscape:export-ydpi="90"
   inkscape:version="1.1.2 (0a00cf5339, 2022-02-04)"
   xmlns:inkscape="http://www.inkscape.org/namespaces/inkscape"
   xmlns:sodipodi="http://sodipodi.sourceforge.net/DTD/sodipodi-0.dtd"
   xmlns:xlink="http://www.w3.org/1999/xlink"
   xmlns="http://www.w3.org/2000/svg"
   xmlns:svg="http://www.w3.org/2000/svg">
  <defs
     id="defs6">
    <linearGradient
       inkscape:collect="always"
       id="linearGradient1219">
      <stop
         style="stop-color:#ffffff;stop-opacity:1"
         offset="0"
         id="stop1215" />
      <stop
         style="stop-color:#caffe0;stop-opacity:1"
         offset="1"
         id="stop1217" />
    </linearGradient>
    <linearGradient
       inkscape:collect="always"
       xlink:href="#linearGradient1219"
       id="linearGradient1221"
       x1="125"
       y1="256.75"
       x2="386.5"
       y2="256.37875"
       gradientUnits="userSpaceOnUse"
       gradientTransform="matrix(1.5098689,0,0,1.5098689,-130.51451,-130.64409)" />
  </defs>
  <sodipodi:namedview
     id="namedview4"
     pagecolor="#ffffff"
     bordercolor="#666666"
     borderopacity="1.0"
     inkscape:pageshadow="2"
     inkscape:pageopacity="0.0"
     inkscape:pagecheckerboard="0"
     showgrid="false"
     inkscape:zoom="0.9140625"
     inkscape:cx="253.26496"
     inkscape:cy="255.45299"
     inkscape:window-width="1366"
     inkscape:window-height="712"
     inkscape:window-x="0"
     inkscape:window-y="0"
     inkscape:window-maximized="1"
     inkscape:current-layer="g8" />
  <g
     inkscape:groupmode="layer"
     inkscape:label="Image"
     id="g8">
    <path
       style="fill:url(#linearGradient1221);fill-opacity:1;stroke-width:1"
       d="M 114.44493,480.43879 C 102.03388,475.70682 94.164295,465.29035 92.228884,451.0329 l -1.076038,-7.92681 h 34.113734 34.11374 v 5.81417 c 0,18.08165 -12.86713,31.55589 -31.32919,32.80734 -4.79565,0.32506 -10.88653,-0.25186 -13.6062,-1.28881 z m 258.58184,-0.17309 c -12.59492,-5.50214 -20.29314,-17.13177 -20.35008,-30.74267 l -0.0332,-7.92681 h 33.97205 33.97205 v 5.67198 c 0,20.0086 -14.99671,35.17387 -34.64597,35.03539 -4.61191,-0.0325 -10.42362,-0.94956 -12.9149,-2.03789 z M 74.072726,422.14801 C 66.889042,418.84925 63.66985,415.4821 60.541492,407.99488 58.56065,403.25405 58.219103,391.74324 58.219103,329.72569 v -72.71094 l 4.152139,0.89294 c 77.870058,16.74616 118.442468,21.22104 192.130818,21.19078 69.86281,-0.0287 114.55698,-4.54208 175.89973,-17.76303 l 22.64803,-4.88123 0.39166,74.63192 0.39167,74.63191 -3.41568,6.19197 c -2.00378,3.63246 -5.91041,7.60485 -9.45089,9.60998 l -6.03519,3.418 -177.40959,-0.008 C 88.57476,424.92212 79.824119,424.7891 74.072726,422.14801 Z M 314.86763,374.42216 c 5.31105,-2.74647 11.76861,-10.35822 13.24098,-15.60762 0.62258,-2.21968 1.0947,-9.47131 1.04916,-16.11473 -0.10131,-14.779 -3.16925,-22.01421 -11.74122,-27.68985 l -6.06755,-4.0174 -52.92394,-0.45176 c -45.895,-0.39177 -53.77511,-0.12668 -59.33285,1.99582 -7.56924,2.89072 -13.32337,9.2063 -15.48754,16.99872 -2.01018,7.23795 -1.99962,22.1486 0.0208,29.42408 2.02768,7.30156 10.11899,15.38034 17.52316,17.49602 9.0672,2.59087 108.20462,0.8183 113.71897,-2.03328 z M 202.6456,357.30214 c -3.44972,-3.81189 -3.54157,-23.15803 -0.12623,-26.57343 2.06503,-2.06497 9.10673,-2.37265 54.30221,-2.37265 59.91272,0 55.0555,-1.43587 55.0555,16.27528 0,16.36449 3.39171,15.43196 -56.12749,15.43196 -47.10796,0 -50.77787,-0.19081 -53.10399,-2.76116 z m -61.77744,9.34623 c 14.72797,-10.91081 15.91242,-30.98231 2.5221,-42.73917 -16.9829,-14.91119 -42.25028,-4.90349 -44.105592,17.46898 -0.943215,11.37408 2.777952,19.32209 11.744532,25.08499 6.04951,3.88808 7.90588,4.32576 16.25014,3.83138 6.45427,-0.3824 10.73289,-1.53046 13.58882,-3.64618 z m -20.40847,-14.97496 c -4.62355,-3.23845 -4.62355,-11.68901 0,-14.92747 4.51644,-3.16343 8.11536,-2.9583 11.74299,0.66933 4.2138,4.2138 3.82234,9.71859 -0.95856,13.47923 -4.76496,3.74813 -6.37886,3.86469 -10.78443,0.77891 z m 280.1848,14.91606 c 13.70496,-10.15141 16.15937,-27.85583 5.49778,-39.65695 -6.78052,-7.50521 -12.3035,-9.68025 -22.44512,-8.83922 -14.04172,1.16444 -23.75592,11.26427 -23.75592,24.69899 0,12.32302 4.71279,20.49442 14.44604,25.04767 7.88965,3.69083 20.3899,3.0955 26.25722,-1.25049 z m -20.48735,-14.91606 c -4.23046,-2.96313 -4.56138,-11.18912 -0.59454,-14.77906 3.74532,-3.38946 10.17904,-3.14744 13.8474,0.52092 3.85806,3.85806 3.82536,7.6278 -0.10962,12.63026 -3.5418,4.50267 -8.21295,5.08123 -13.14327,1.62788 z M 217.51027,261.85578 c -44.4318,-2.27748 -96.5267,-9.42769 -140.417806,-19.27281 l -18.118427,-4.06411 -0.398092,-49.44821 -0.398107,-49.44821 h -9.589902 c -7.415601,0 -10.491883,0.70951 -13.568181,3.12933 -3.725012,2.93009 -3.978293,3.92451 -3.978293,15.61961 0,10.48715 -0.474536,12.91973 -2.958905,15.16805 -3.958197,3.58213 -10.260939,1.97707 -12.193188,-3.10514 -3.304521,-8.69154 -0.953411,-28.20477 4.244145,-35.2246 6.15633,-8.31475 11.809174,-10.68594 25.474982,-10.68594 9.515707,0 12.610607,-0.49513 12.610607,-2.01745 0,-2.44872 111.257767,-4.01834 284.987757,-4.02059 97.3033,-10e-4 110.59789,0.27081 110.59789,2.26337 0,1.80185 2.2376,2.27158 10.94655,2.29796 16.19416,0.0491 27.02867,5.96469 31.22921,17.05116 0.88574,2.33773 1.61044,10.27264 1.61044,17.63311 0,14.95306 -1.59051,18.12799 -9.08144,18.12799 -6.70949,0 -9.03698,-4.69271 -9.03698,-18.22038 0,-14.8272 -1.58667,-16.50661 -15.59505,-16.50661 h -10.07273 v 48.93547 48.93549 l -13.96628,3.21591 c -69.3829,15.97632 -151.77228,23.25316 -222.3282,19.6366 z M 58.665646,89.419302 C 59.157939,82.568272 60.637309,73.934404 61.953114,70.23293 67.863934,53.605363 80.64354,40.30677 97.095071,33.663815 l 8.684899,-3.506867 H 257.5218 409.26362 l 8.68573,4.07044 c 12.05649,5.650066 24.2608,17.633774 30.15813,29.612923 4.13308,8.39549 4.91062,11.813833 5.43992,23.915508 l 0.61755,14.119901 H 255.96776 57.770581 Z"
       id="path1063" />
  </g>
</svg>
